<svg height='100px' width='100px'  fill="#fff" xmlns="http://www.w3.org/2000/svg" xmlns:xlink="http://www.w3.org/1999/xlink" version="1.1" x="0px" y="0px" viewBox="0 0 100 100" enable-background="new 0 0 100 100" xml:space="preserve"><g><path d="M35.963,71.558c4.383,1.498,6.11,1.498,10.573,0c2.904-0.968,4.408-1.313,6.539-0.941c3.57-2.38,7.344-5.374,10.41-8.926   c1.148-1.331,2.252-2.74,3.306-4.179c-2.668,1.469-8.065,3.804-13.043,2.085c-3.185-1.1-4.94-2.97-5.902-4.834   c-6.453,4.492-13.494,10.05-20.678,16.418C30.57,70.125,32.11,70.247,35.963,71.558z"></path><path d="M77.019,76.153c-4.263-1.45-5.693-1.45-9.952,0c-4.385,1.498-6.127,1.498-10.571,0c-4.485-1.5-5.756-1.401-9.959,0   c-4.463,1.498-6.19,1.498-10.573,0c-4.267-1.45-5.69-1.45-9.958,0c-4.384,1.498-6.125,1.498-10.572,0   c-2.166-0.725-3.858-1.096-5.03-1.096c-1.104,0-2.76,0.371-4.931,1.096c-2.021,0.683-3.633,1.014-4.898,1.077v6.752l0.017,0.268   c0.749-0.42,2.435-0.789,4.608-1.515c4.567-1.539,6.193-1.453,10.516,0c4.213,1.408,5.493,1.506,9.962,0   c4.439-1.498,6.159-1.498,10.626,0c4.464,1.498,5.742,1.408,9.962,0c4.314-1.466,5.931-1.544,10.513,0   c4.19,1.408,5.474,1.498,9.962,0c4.444-1.498,6.187-1.498,10.57,0c1.882,0.646,3.41,1.004,4.556,1.08v-6.956   C80.976,77.309,79.209,76.905,77.019,76.153z"></path><path d="M23.436,38.601c0,0,6.935,3.285,7.749,9.335c0.567,4.217-8.917,15.101-16.769,23.298c0.328,0.1,0.664,0.206,1.018,0.324   c2.501,0.843,4.147,1.212,5.888,1.105c9.232-8.17,18.206-14.919,25.841-19.607c-0.652-2.205-0.391-4.037-0.391-4.037   s1.348,7.22,8.313,8.958c3.957,0.989,10.882-1.777,13.426-2.891c4.089-5.971,7.316-12.027,9.434-15.034   c2.921-4.15,3.559-5.903,3.559-5.903s0.57-0.792-0.138-1.054c-1.033-0.383-6.573,4.814-6.573,4.814s-8.625,7.787-8.906,7.406   c-1.337-1.812,6.52-8.834,6.52-8.834s16.362-13.22,25.131-20.902c0,0,2.043-1.784,1.109-2.495   c-1.137-0.865-3.631,1.159-3.631,1.159c-7.434,6.149-29.355,23.825-41.002,24.612c-8.577,0.578-17.118-2.532-19.986-2.765   c-7.52-0.611-11.067,0.868-11.342,1.491C22.408,38.204,23.436,38.601,23.436,38.601z M59.05,42.395   c0.848-0.147,1.655,0.422,1.803,1.27c0.146,0.849-0.421,1.655-1.269,1.803c-0.849,0.147-1.657-0.42-1.803-1.27   C57.634,43.35,58.2,42.542,59.05,42.395z"></path></g></svg>